<svg id="svg8" height="512" viewBox="0 0 8.4666664 8.4666672" width="512"
    xmlns="http://www.w3.org/2000/svg" xmlns:svg="http://www.w3.org/2000/svg">
    <g id="layer1" transform="translate(0 761.333)">
        <path id="path1578"
            d="m4.2333333-760.80423c-.873627 0-1.587536.71391-1.587536 1.58753s.713909 1.58733 1.587536 1.58733c.8736261 0 1.587535-.71371 1.587535-1.58733s-.7139089-1.58753-1.587535-1.58753zm-.5293086 3.70417c-1.3146496 0-2.3811081 1.06665-2.3811081 2.38129v1.32287h5.8208336v-1.32287c0-1.31464-1.0666545-2.38129-2.381304-2.38129-.1720806.00006-.2983309.16176-.2566464.32871l.4927855 1.97133-.7652518.76525-.7654466-.76525.4929792-1.97133c.041704-.16703-.08468-.32878-.2568414-.32871z"
            font-variant-ligatures="normal" font-variant-position="normal"
            font-variant-caps="normal" font-variant-numeric="normal"
            font-variant-alternates="normal" font-variant-east-asian="normal"
            font-feature-settings="normal" font-variation-settings="normal" text-indent="0"
            text-align="start" text-decoration-line="none" text-decoration-style="solid"
            text-decoration-color="rgb(0,0,0)" text-transform="none" text-orientation="mixed"
            white-space="normal" shape-padding="0" shape-margin="0" inline-size="0" isolation="auto"
            mix-blend-mode="normal" solid-color="rgb(0,0,0)" solid-opacity="1" vector-effect="none"
            paint-order="fill markers stroke" />
    </g>
</svg>